<?xml version="1.0" standalone="no"?>
<!DOCTYPE svg PUBLIC "-//W3C//DTD SVG 20010904//EN"
 "http://www.w3.org/TR/2001/REC-SVG-20010904/DTD/svg10.dtd">
<svg version="1.0" xmlns="http://www.w3.org/2000/svg"
 width="260.000000pt" height="260.000000pt" viewBox="0 0 260.000000 260.000000"
 preserveAspectRatio="xMidYMid meet">
<metadata>
Created by potrace 1.14, written by Peter Selinger 2001-2017
</metadata>
<g transform="translate(0.000000,260.000000) scale(0.100000,-0.100000)"
fill="#000000" stroke="none">
<path d="M2550 2578 c0 -13 7 -32 15 -42 8 -11 15 -14 15 -7 0 7 4 10 8 7 4
-2 9 11 10 30 2 30 0 34 -23 34 -19 0 -25 -5 -25 -22z"/>
<path d="M1171 2547 c-6 -8 -10 -16 -8 -18 1 -2 -3 1 -9 8 -13 15 -28 18 -19
4 3 -5 1 -13 -5 -16 -6 -4 -9 -3 -8 2 2 4 -1 8 -7 8 -5 0 -9 -4 -7 -10 1 -5
-3 -3 -10 5 -11 14 -22 16 -43 11 -3 0 0 -11 6 -23 12 -22 11 -22 -6 -8 -10 8
-16 10 -12 4 4 -7 -1 -22 -11 -35 -15 -17 -21 -19 -27 -9 -5 9 -4 11 3 6 8 -5
10 -1 5 9 -3 9 -9 13 -12 8 -3 -4 -12 -8 -18 -9 -30 -2 -34 -5 -27 -16 4 -7
-3 -4 -16 7 -13 11 -20 15 -17 8 4 -6 3 -14 -2 -18 -7 -3 -7 -15 -1 -30 7 -19
6 -23 -5 -18 -8 3 -12 9 -9 15 3 5 -3 4 -14 -3 -15 -9 -18 -17 -11 -25 7 -8 5
-11 -8 -10 -14 1 -17 -5 -15 -24 2 -19 1 -22 -7 -10 -9 13 -12 13 -23 1 -10
-10 -10 -12 0 -7 17 10 15 1 -4 -14 -8 -8 -14 -9 -13 -4 3 20 -2 34 -12 34 -6
0 -8 -7 -5 -16 3 -9 2 -12 -5 -9 -6 4 -20 -1 -32 -12 -19 -15 -20 -16 -8 0 9
11 10 17 2 17 -6 0 -11 -5 -11 -11 0 -5 -6 -7 -12 -3 -7 4 -4 -3 7 -16 11 -13
14 -20 6 -15 -11 6 -13 4 -7 -11 4 -10 9 -23 10 -29 1 -5 6 -17 11 -25 7 -12
6 -13 -6 -3 -9 8 -20 9 -29 3 -13 -8 -13 -10 -1 -10 8 0 11 -3 8 -6 -4 -4 -14
-1 -24 7 -14 12 -16 12 -8 0 6 -11 3 -13 -16 -8 -22 5 -22 5 -6 -7 16 -13 16
-14 0 -27 -14 -12 -16 -12 -8 0 6 10 4 12 -5 6 -10 -6 -9 -11 6 -22 18 -13 17
-14 -8 -8 -18 5 -28 3 -29 -4 -1 -6 -2 -15 -3 -21 -1 -12 -15 -14 -24 -4 -4 4
-2 5 3 1 6 -3 12 4 12 16 2 22 2 22 -10 2 -16 -27 -15 -38 3 -53 13 -11 12
-11 -7 -3 -29 14 -36 14 -27 -1 5 -9 2 -8 -10 1 -15 13 -17 12 -12 -12 2 -15
0 -30 -6 -33 -7 -4 -8 -2 -4 4 9 15 3 15 -28 1 -14 -7 -23 -16 -19 -22 3 -5 9
-4 14 4 4 7 11 10 16 6 11 -12 -16 -25 -41 -20 -12 3 -17 1 -10 -4 18 -14 30
-60 14 -56 -4 1 -10 -7 -13 -18 -5 -17 -3 -18 9 -8 12 10 13 9 7 -7 -3 -10
-11 -22 -17 -26 -8 -5 -7 -8 1 -8 7 0 17 8 22 18 6 9 11 12 11 7 0 -6 -5 -16
-11 -22 -7 -7 -9 -20 -5 -30 9 -22 5 -29 -14 -25 -11 2 -11 0 -3 -5 13 -9 12
-38 -2 -50 -4 -4 -5 -2 -1 5 8 14 -10 17 -19 2 -3 -5 -12 -10 -18 -10 -7 0 -6
4 3 11 13 9 13 10 0 6 -8 -2 -14 -10 -13 -16 2 -6 -3 -11 -10 -11 -8 0 -8 -3
2 -9 17 -11 24 -41 9 -41 -6 0 -7 8 -3 18 5 13 3 14 -6 5 -9 -9 -7 -18 10 -41
25 -36 25 -38 5 -46 -10 -4 -13 -2 -8 7 4 6 3 9 -1 5 -13 -12 -16 -60 -3 -52
7 5 8 2 4 -5 -5 -7 -11 -10 -14 -7 -3 3 -12 0 -21 -7 -14 -10 -14 -10 -3 5 10
12 10 18 1 24 -8 4 -9 3 -5 -4 4 -7 2 -12 -3 -12 -6 0 -11 -9 -11 -20 0 -11
-5 -20 -11 -20 -6 0 -4 -7 5 -15 12 -12 13 -22 6 -41 -14 -35 -12 -41 4 -19
11 15 17 17 28 7 8 -6 18 -10 21 -7 4 3 5 2 2 -2 -3 -3 0 -12 6 -20 6 -7 7
-13 3 -13 -5 0 -15 9 -22 20 -7 11 -17 20 -23 20 -7 0 0 -12 15 -26 20 -21 24
-30 15 -40 -6 -8 -16 -14 -22 -14 -6 0 -2 7 9 16 10 8 12 12 4 8 -38 -18 -50
-36 -38 -58 10 -18 9 -19 -4 -9 -12 10 -15 10 -15 -2 0 -8 7 -15 16 -15 11 0
11 -3 -5 -16 -10 -8 -14 -13 -7 -10 6 4 14 2 18 -4 6 -9 -7 -14 -27 -11 -13 2
-9 -6 9 -20 14 -12 16 -12 8 0 -6 10 -4 12 4 7 9 -6 8 -14 -4 -33 -10 -14 -13
-23 -7 -19 5 3 12 -3 15 -14 6 -22 -8 -28 -16 -7 -3 6 -4 2 -4 -10 1 -12 4
-21 8 -20 4 1 15 -7 23 -18 l16 -20 -6 20 c-3 12 1 9 11 -7 8 -16 18 -28 21
-28 3 0 2 5 -2 12 -4 7 -3 8 4 4 6 -4 9 -13 5 -21 -3 -9 0 -22 7 -30 10 -12 9
-15 -4 -15 -11 0 -14 -4 -9 -12 11 -19 13 -39 2 -32 -5 3 -6 11 -3 17 4 7 3 9
-1 4 -11 -9 -14 -48 -4 -42 4 3 10 -2 13 -11 3 -8 2 -12 -3 -9 -5 3 -12 1 -16
-5 -3 -5 0 -10 7 -10 10 0 13 -19 11 -76 -1 -42 -5 -84 -8 -92 -5 -12 -3 -13
10 -2 13 11 16 11 13 0 -2 -7 3 -15 11 -18 10 -3 11 0 5 9 -6 11 -5 12 8 2 8
-7 17 -11 19 -8 3 2 5 -5 5 -15 0 -11 -7 -20 -16 -20 -13 0 -13 -2 0 -9 8 -6
18 -7 24 -4 5 3 6 1 2 -6 -4 -6 -11 -9 -16 -6 -4 3 -6 -5 -2 -17 4 -16 2 -19
-9 -13 -8 5 -11 4 -6 -1 5 -5 13 -10 18 -10 5 -1 12 -2 15 -3 4 0 1 -8 -6 -16
-6 -8 -9 -19 -6 -24 4 -5 1 -13 -5 -17 -8 -5 -9 -3 -4 6 5 9 4 11 -4 6 -9 -6
-9 -11 0 -22 9 -11 8 -14 -2 -14 -8 0 -6 -6 7 -16 10 -8 14 -13 7 -10 -6 4
-15 1 -19 -5 -4 -8 -3 -9 4 -5 7 4 12 2 12 -4 0 -6 5 -8 11 -5 6 4 5 -2 -2
-13 -10 -16 -10 -23 0 -35 8 -11 9 -17 1 -22 -6 -4 -9 -1 -8 6 2 6 -4 14 -12
16 -9 3 -11 1 -5 -4 10 -8 16 -25 18 -55 1 -20 23 -31 40 -21 6 4 8 0 4 -10
-3 -9 -2 -19 3 -22 6 -4 10 -1 10 5 0 6 5 8 11 4 8 -4 3 -12 -12 -20 -13 -7
-18 -13 -10 -14 8 0 11 -3 8 -6 -3 -4 -2 -15 4 -25 5 -11 6 -19 1 -19 -5 0 -8
-16 -7 -35 1 -19 -2 -35 -7 -35 -5 0 -6 -5 -2 -11 5 -8 9 -8 14 1 5 8 10 9 14
2 3 -6 -3 -14 -15 -17 -17 -6 -19 -9 -8 -16 8 -5 10 -9 6 -9 -4 0 -3 -9 3 -20
6 -11 7 -20 2 -20 -4 0 -7 -15 -7 -33 1 -17 -3 -35 -8 -38 -5 -3 -1 -9 8 -12
11 -5 14 -3 10 6 -4 6 0 4 9 -6 8 -11 13 -24 12 -30 -2 -7 -1 -9 1 -4 3 4 10
4 15 1 6 -4 8 -2 4 4 -3 6 -2 13 4 17 9 6 14 -8 11 -28 -1 -4 8 -2 19 5 15 10
22 10 32 0 6 -6 17 -12 23 -12 5 0 3 5 -5 11 -11 8 -7 9 20 6 19 -2 42 -6 50
-8 9 -2 15 2 14 12 -1 9 5 16 12 16 8 0 13 -7 12 -15 -2 -8 4 -16 13 -17 9 -2
16 3 16 11 0 7 -5 10 -10 7 -6 -3 -7 -1 -3 5 4 6 13 9 21 6 8 -4 13 -9 10 -13
-2 -4 2 -8 10 -8 10 0 11 5 5 17 -12 22 21 55 45 47 10 -4 15 0 15 11 1 15 1
16 10 1 7 -12 19 -15 42 -12 18 2 41 4 51 4 11 0 15 5 10 12 -4 7 0 6 10 -2
18 -15 23 -3 7 17 -6 6 -7 10 -4 7 4 -3 13 3 21 13 8 9 11 11 7 3 -4 -9 -3
-12 4 -7 6 4 9 12 6 20 -3 7 2 13 10 13 8 0 13 -4 11 -8 -3 -3 4 -9 15 -12 22
-6 28 8 8 16 -7 2 6 3 28 3 23 -1 50 -8 60 -16 10 -8 15 -10 11 -4 -9 15 15
24 49 18 21 -4 25 -2 20 11 -3 9 -2 13 4 10 9 -6 14 8 11 28 -1 5 3 6 9 2 5
-3 10 -1 10 6 0 7 3 9 6 6 4 -4 1 -13 -6 -22 -7 -8 -8 -15 -4 -15 5 0 15 9 22
20 7 11 17 20 23 20 8 0 8 -4 0 -14 -10 -12 -8 -13 8 -9 12 3 18 10 14 17 -4
6 0 5 9 -2 14 -11 18 -10 30 7 8 12 18 18 23 13 5 -4 5 -2 1 5 -4 7 -14 10
-24 7 -15 -5 -15 -5 1 6 9 6 22 8 27 5 6 -3 7 1 4 9 -3 9 -1 16 5 16 6 0 11
-5 11 -11 0 -6 6 -9 14 -6 7 3 19 0 26 -6 10 -9 10 -6 0 13 -13 24 -12 25 7 8
15 -14 22 -15 31 -6 15 15 15 28 1 28 -5 0 -8 -4 -4 -9 3 -5 1 -12 -4 -15 -5
-4 -8 2 -7 11 2 12 12 18 28 18 16 0 24 4 21 12 -3 6 -12 9 -21 7 -12 -4 -11
-2 2 7 16 9 21 9 24 0 3 -9 7 -9 18 0 10 8 17 7 29 -5 9 -9 22 -16 28 -16 7 0
4 5 -5 11 -10 5 -18 15 -18 22 0 9 3 8 9 -1 4 -8 19 -11 35 -8 20 4 26 1 23
-8 -3 -7 1 -13 8 -13 8 0 11 7 7 15 -3 9 -1 13 5 9 6 -4 14 -1 17 5 3 7 3 2 0
-12 -4 -20 -3 -22 5 -10 10 13 12 13 21 0 7 -11 10 -11 10 -2 0 7 5 10 10 7 6
-4 10 -3 9 2 -1 4 0 11 1 16 6 19 5 33 -5 40 -5 5 1 5 14 2 18 -6 22 -4 15 6
-6 11 -5 12 7 2 12 -10 18 -10 29 0 10 9 11 9 6 -1 -5 -8 0 -12 13 -12 12 0
21 5 21 11 0 5 -5 7 -12 3 -7 -4 -8 -3 -4 5 6 9 11 9 21 1 8 -7 15 -7 19 -1 3
5 0 12 -6 14 -9 4 -7 6 3 6 9 1 23 8 30 18 13 15 12 15 -8 4 -18 -9 -22 -9
-18 2 7 16 45 20 45 4 0 -7 4 -6 10 3 6 10 10 11 10 3 0 -16 42 -11 48 5 2 7
9 10 15 6 7 -3 3 2 -8 12 -20 16 -20 16 3 11 26 -6 28 1 5 19 -16 12 -16 12 6
7 19 -5 22 -3 16 8 -8 12 -6 12 8 0 12 -9 17 -10 17 -2 0 7 5 9 10 6 6 -3 10
3 10 14 0 10 -6 22 -12 25 -7 3 -2 3 11 0 17 -5 21 -3 16 6 -6 10 -1 12 18 8
24 -5 25 -3 15 15 -8 17 -8 19 5 14 11 -4 24 4 38 21 11 15 23 25 26 24 2 -2
8 0 11 4 4 4 1 4 -5 0 -7 -4 -13 -2 -13 3 0 6 6 11 13 11 9 0 9 2 -1 9 -7 4
-15 20 -16 34 -2 20 1 24 13 19 14 -5 14 -4 1 14 -8 10 -10 16 -5 11 4 -4 16
0 26 9 10 9 24 14 32 11 7 -3 14 1 15 9 1 8 3 20 4 28 2 16 28 9 28 -8 0 -6 7
2 15 18 14 26 14 30 -1 41 -12 8 -13 14 -6 19 6 4 9 13 6 20 -3 7 3 19 12 27
10 8 15 9 11 3 -3 -6 0 -11 7 -11 9 0 12 7 8 16 -5 14 -4 14 11 2 15 -12 17
-12 11 4 -6 14 -4 16 7 10 8 -5 5 2 -6 15 l-20 23 24 -13 c19 -10 22 -10 15 2
-5 7 -10 21 -11 32 -2 14 0 16 10 10 7 -5 4 -1 -6 9 -11 9 -15 17 -9 17 5 0
13 7 16 16 5 14 4 15 -9 4 -15 -12 -22 0 -8 14 21 20 18 77 -4 94 -16 13 -16
13 7 8 24 -7 24 -6 6 8 -15 12 -16 19 -8 29 7 8 8 18 4 22 -4 5 -1 5 6 1 10
-6 10 -11 1 -22 -10 -12 -9 -13 5 -8 9 3 16 15 16 25 0 12 5 16 15 13 11 -5
13 -2 9 10 -3 9 -1 16 5 16 6 0 11 -5 11 -12 0 -6 2 -9 5 -6 8 8 -6 39 -15 33
-11 -7 -6 22 5 32 4 4 5 2 1 -4 -5 -9 -2 -11 9 -6 12 4 13 8 5 13 -7 4 -10 12
-7 17 3 5 2 15 -3 22 -4 8 -4 27 0 43 7 23 5 33 -13 50 -12 11 -16 18 -10 14
7 -4 21 -2 30 3 11 6 13 11 5 11 -7 0 -12 8 -10 18 2 10 -3 17 -13 16 -9 -1
-16 4 -16 11 0 7 9 11 21 8 20 -3 20 -3 1 6 -12 5 -24 5 -29 0 -6 -5 -15 -9
-20 -9 -6 0 -4 5 4 10 13 8 13 10 -2 10 -12 0 -15 5 -11 17 4 11 3 14 -5 9
-22 -14 -11 9 13 27 17 12 26 14 31 5 5 -7 3 -8 -6 -3 -9 5 -11 4 -6 -4 11
-18 36 6 29 27 -6 15 -5 16 13 2 18 -14 18 -14 5 3 -15 20 -46 24 -35 5 4 -7
3 -9 -1 -5 -13 12 -15 37 -2 37 5 0 7 3 4 7 -4 3 -15 -1 -25 -10 -16 -15 -18
-15 -18 3 0 10 5 16 11 14 5 -3 3 1 -6 7 -14 10 -15 18 -7 41 12 33 7 41 -25
43 -14 1 -23 9 -25 23 -2 12 -7 20 -12 17 -4 -3 -10 2 -13 10 -4 9 -1 12 9 8
7 -3 14 0 14 7 0 6 -4 9 -9 5 -5 -3 -12 -1 -16 4 -3 6 -12 8 -20 4 -9 -3 -15
1 -15 8 0 11 -3 11 -10 -1 -5 -8 -10 -10 -10 -4 0 6 3 14 7 18 10 10 13 37 3
31 -4 -3 -13 2 -20 10 -8 10 -18 11 -35 5 -23 -9 -24 -8 -15 15 7 19 6 23 -5
18 -8 -3 -15 0 -15 6 0 6 -7 11 -16 11 -8 0 -12 5 -9 10 3 6 1 10 -4 10 -6 0
-11 5 -11 11 0 5 5 7 12 3 7 -4 8 -3 4 4 -4 6 -14 8 -23 5 -12 -5 -15 -2 -10
10 5 14 2 15 -18 7 -14 -5 -25 -7 -25 -4 0 4 -6 1 -14 -5 -10 -8 -16 -9 -21
-1 -3 6 -12 7 -18 4 -7 -4 -9 -3 -4 1 4 5 -1 17 -10 28 -10 11 -12 17 -5 13 6
-4 12 -2 12 3 0 6 -7 11 -15 11 -10 0 -12 6 -8 18 6 15 5 15 -10 3 -12 -9 -17
-10 -17 -2 0 7 -4 10 -9 6 -5 -3 -13 0 -17 6 -4 7 -3 9 3 6 11 -7 28 22 18 31
-3 3 -5 1 -5 -5 0 -5 -7 -10 -15 -10 -18 0 -19 9 -2 26 10 11 9 12 -1 7 -7 -4
-21 -2 -30 5 -14 11 -15 11 -4 -1 15 -17 16 -30 1 -30 -5 0 -8 4 -4 9 3 6 -2
14 -12 19 -14 8 -15 13 -5 25 10 12 10 16 0 20 -7 3 3 3 23 0 24 -3 39 -1 44
8 6 9 4 11 -8 6 -9 -3 -19 -1 -23 5 -4 6 -3 8 4 4 6 -3 13 -2 17 3 3 6 13 7
22 4 15 -6 16 -5 3 9 -8 9 -17 14 -21 13 -7 -5 -2 55 6 63 4 4 19 7 33 8 20 0
26 5 24 18 -2 12 1 16 9 10 9 -5 9 -3 3 7 -5 8 -9 18 -9 23 0 12 -34 16 -41 5
-3 -5 -10 -9 -15 -9 -6 0 -7 5 -4 10 3 6 2 10 -4 10 -5 0 -12 -6 -15 -12 -5
-10 -7 -10 -12 0 -4 8 -11 5 -24 -10 -11 -14 -15 -27 -10 -33 5 -6 4 -17 -2
-25 -8 -12 -9 -12 -4 2 4 14 0 17 -15 15 -22 -4 -41 -26 -33 -39 3 -5 -2 -11
-10 -14 -9 -3 -13 -10 -10 -15 3 -5 0 -9 -5 -9 -6 0 -11 5 -11 10 0 6 -6 5
-14 -2 -8 -7 -12 -16 -9 -20 8 -15 -5 -8 -18 9 -12 15 -12 16 1 8 8 -4 12 -4
7 0 -4 5 -18 10 -30 11 -12 2 -16 0 -9 -2 20 -9 14 -23 -8 -17 -11 3 -17 10
-13 17 3 6 0 6 -8 -1 -18 -18 -39 -16 -39 3 0 8 -4 13 -9 10 -5 -3 -11 1 -14
9 -4 10 -1 12 11 9 15 -5 15 -4 -1 6 -9 6 -21 9 -26 6 -11 -7 -33 18 -29 35 2
7 -3 14 -9 15 -27 3 -28 5 -13 14 8 5 11 12 7 17 -5 4 -12 1 -17 -7 -5 -8 -12
-11 -16 -7 -4 4 -13 2 -21 -5 -11 -8 -12 -7 -7 6 3 9 1 16 -5 16 -6 0 -11 -4
-11 -9 0 -11 -30 -19 -48 -14 -6 3 -10 9 -7 13 3 5 -6 7 -20 4 -17 -3 -25 0
-25 10 0 8 -6 16 -12 19 -10 3 -10 7 -1 19 10 12 10 15 -2 15 -8 0 -12 -4 -9
-9 3 -4 0 -8 -5 -8 -6 0 -11 5 -11 11 0 5 -5 7 -10 4 -6 -4 -7 -11 -4 -17 4
-7 2 -8 -5 -4 -6 4 -9 11 -6 16 3 5 0 12 -6 16 -8 4 -9 3 -5 -4 4 -7 2 -12 -4
-12 -6 0 -8 -6 -5 -12 4 -7 0 -5 -8 5 -14 17 -33 24 -23 9 2 -4 0 -14 -5 -22
-8 -12 -9 -11 -7 5 2 13 -4 20 -17 23 -15 2 -16 1 -7 -6 11 -7 9 -10 -6 -14
-15 -4 -19 -2 -15 8 4 12 0 12 -21 4 -14 -5 -26 -6 -26 -2 0 4 -5 0 -10 -8 -9
-13 -10 -13 -11 0 -1 8 -1 18 0 23 2 11 -5 9 -18 -6z m-181 -77 c0 -5 -5 -10
-11 -10 -5 0 -7 5 -4 10 3 6 8 10 11 10 2 0 4 -4 4 -10z m1047 -7 c0 -9 -4
-10 -14 -2 -7 6 -13 12 -13 14 0 1 6 2 13 2 8 0 14 -6 14 -14z m-1097 -3 c0
-5 -5 -10 -11 -10 -5 0 -7 5 -4 10 3 6 8 10 11 10 2 0 4 -4 4 -10z m1004 -8
c3 -5 -1 -9 -9 -9 -8 0 -12 4 -9 9 3 4 7 8 9 8 2 0 6 -4 9 -8z m341 -472 c17
-18 17 -20 2 -14 -9 3 -17 10 -17 15 0 4 -8 6 -17 3 -15 -5 -16 -4 -3 5 8 6
15 11 16 11 0 0 9 -9 19 -20z m50 -60 c-3 -5 -12 -10 -18 -10 -7 0 -6 4 3 10
19 12 23 12 15 0z m150 -409 c3 -5 2 -12 -3 -15 -5 -3 -9 1 -9 9 0 17 3 19 12
6z m-6 -75 c9 -11 9 -16 -1 -22 -7 -4 -10 -4 -6 1 4 4 3 14 -3 22 -6 7 -9 13
-6 13 2 0 10 -6 16 -14z m-54 -236 c-3 -5 -12 -10 -18 -10 -7 0 -6 4 3 10 19
12 23 12 15 0z m-70 -290 c-3 -5 -12 -10 -18 -10 -7 0 -6 4 3 10 19 12 23 12
15 0z m-156 -216 c-6 -8 -15 -12 -18 -8 -3 4 0 9 7 11 6 3 9 10 6 15 -4 7 -2
8 5 4 9 -6 9 -11 0 -22z m-1689 -55 c0 -5 -4 -9 -8 -9 -5 0 -9 7 -9 15 0 8 4
12 9 9 4 -3 8 -9 8 -15z m1520 -103 c0 -2 -7 -7 -16 -10 -8 -3 -12 -2 -9 4 6
10 25 14 25 6z m-240 -121 c-7 -9 -15 -13 -19 -10 -3 3 1 10 9 15 21 14 24 12
10 -5z m-1224 -21 c1 -9 0 -13 -4 -10 -3 4 -7 14 -8 22 -1 9 0 13 4 10 3 -4 7
-14 8 -22z m0 -160 c1 -9 0 -13 -4 -10 -3 4 -7 14 -8 22 -1 9 0 13 4 10 3 -4
7 -14 8 -22z m419 -73 c-9 -8 -36 -10 -30 -2 2 4 11 8 20 8 8 0 13 -3 10 -6z
m-295 -56 c0 -7 -30 -13 -34 -7 -3 4 4 9 15 9 10 1 19 0 19 -2z m64 -12 c4
-11 1 -11 -14 -3 -24 13 -25 17 -5 17 8 0 16 -6 19 -14z"/>
<path d="M1490 2479 c0 -5 5 -7 10 -4 6 3 10 8 10 11 0 2 -4 4 -10 4 -5 0 -10
-5 -10 -11z"/>
<path d="M1636 2418 c3 -4 11 -5 19 -1 21 7 19 12 -4 10 -11 0 -18 -5 -15 -9z"/>
<path d="M1986 2393 c-4 -11 -1 -11 14 -3 24 13 25 17 5 17 -8 0 -16 -6 -19
-14z"/>
<path d="M756 2358 c3 -5 10 -6 15 -3 13 9 11 12 -6 12 -8 0 -12 -4 -9 -9z"/>
<path d="M1925 2270 c-3 -6 1 -7 9 -4 18 7 21 14 7 14 -6 0 -13 -4 -16 -10z"/>
<path d="M715 2260 c-16 -7 -17 -9 -3 -9 9 -1 20 4 23 9 7 11 7 11 -20 0z"/>
<path d="M2056 2141 c-3 -4 3 -16 13 -25 13 -12 21 -14 26 -6 4 6 4 14 1 17
-3 4 -6 1 -6 -7 0 -10 -3 -10 -15 0 -8 7 -12 16 -9 21 3 5 3 9 0 9 -3 0 -7 -4
-10 -9z"/>
<path d="M470 1996 c0 -2 8 -10 18 -17 15 -13 16 -12 3 4 -13 16 -21 21 -21
13z"/>
<path d="M470 1876 c0 -2 8 -10 18 -17 15 -13 16 -12 3 4 -13 16 -21 21 -21
13z"/>
<path d="M2385 1870 c-3 -6 1 -7 9 -4 18 7 21 14 7 14 -6 0 -13 -4 -16 -10z"/>
<path d="M2430 1800 c0 -5 5 -10 11 -10 5 0 7 5 4 10 -3 6 -8 10 -11 10 -2 0
-4 -4 -4 -10z"/>
<path d="M410 1701 c0 -5 7 -12 16 -15 14 -5 15 -4 4 9 -14 17 -20 19 -20 6z"/>
<path d="M353 1545 c0 -8 4 -12 9 -9 5 3 6 10 3 15 -9 13 -12 11 -12 -6z"/>
<path d="M410 1141 c0 -6 4 -13 10 -16 6 -3 7 1 4 9 -7 18 -14 21 -14 7z"/>
<path d="M419 958 c-6 -12 -5 -48 1 -48 4 0 7 11 6 25 -1 22 -3 30 -7 23z"/>
<path d="M2360 950 c-9 -6 -10 -10 -3 -10 6 0 15 5 18 10 8 12 4 12 -15 0z"/>
<path d="M2265 831 c-3 -6 3 -9 14 -8 11 0 17 5 15 9 -7 11 -22 10 -29 -1z"/>
<path d="M2235 780 c-3 -5 -1 -10 4 -10 6 0 11 5 11 10 0 6 -2 10 -4 10 -3 0
-8 -4 -11 -10z"/>
<path d="M480 710 c-9 -6 -10 -10 -3 -10 6 0 15 5 18 10 8 12 4 12 -15 0z"/>
<path d="M1173 205 c0 -8 4 -12 9 -9 4 3 8 9 8 15 0 5 -4 9 -8 9 -5 0 -9 -7
-9 -15z"/>
<path d="M1233 205 c0 -8 4 -12 9 -9 4 3 8 9 8 15 0 5 -4 9 -8 9 -5 0 -9 -7
-9 -15z"/>
<path d="M861 126 c-8 -10 -9 -16 -1 -21 6 -4 9 -1 8 7 -2 7 3 12 10 10 8 -1
11 2 7 8 -8 13 -10 13 -24 -4z"/>
</g>
</svg>
